name rise43.5482peak65.4966fall89.1036.mot
datacolumns 19
datarows 24
range 11.19161600000000 11.22995400000000
endheader
time	ground_force1_vx	ground_force1_vy	ground_force1_vz	ground_force1_px	ground_force1_py	ground_force1_pz	ground_force2_vx	ground_force2_vy	ground_force2_vz	ground_force2_px	ground_force2_py	ground_force2_pz	ground_torque1_x	ground_torque1_y	ground_torque1_z	ground_torque2_x	ground_torque2_y	ground_torque2_z	
11.19161600000000	61.82446800000000	803.50557800000001	63.67032000000000	0.31193100000000	0.00000000000000	0.12737600000000	0.00000000000000	0.00000000000000	0.00000000000000	0.00000000000000	0.00000000000000	0.00000000000000	0.00000000000000	23.99099000000000	0.00000000000000	0.00000000000000	0.00000000000000	0.00000000000000	
11.19328900000000	61.00183600000000	804.78544799999997	63.72492600000000	0.31084000000000	0.00000000000000	0.12741800000000	0.00000000000000	0.00000000000000	0.00000000000000	0.00000000000000	0.00000000000000	0.00000000000000	0.00000000000000	24.08428000000000	0.00000000000000	0.00000000000000	0.00000000000000	0.00000000000000	
11.19495500000000	60.18740400000000	805.91652999999997	63.76903700000000	0.30976100000000	0.00000000000000	0.12746100000000	0.00000000000000	0.00000000000000	0.00000000000000	0.00000000000000	0.00000000000000	0.00000000000000	0.00000000000000	24.17036900000000	0.00000000000000	0.00000000000000	0.00000000000000	0.00000000000000	
11.19661600000000	59.38180300000000	806.90030899999999	63.80251700000000	0.30869300000000	0.00000000000000	0.12750400000000	0.00000000000000	0.00000000000000	0.00000000000000	0.00000000000000	0.00000000000000	0.00000000000000	0.00000000000000	24.24901700000000	0.00000000000000	0.00000000000000	0.00000000000000	0.00000000000000	
11.19828400000000	58.58559000000000	807.73848099999998	63.82522100000000	0.30763300000000	0.00000000000000	0.12754700000000	0.00000000000000	0.00000000000000	0.00000000000000	0.00000000000000	0.00000000000000	0.00000000000000	0.00000000000000	24.31998800000000	0.00000000000000	0.00000000000000	0.00000000000000	0.00000000000000	
11.19995500000000	57.79925000000000	808.43295300000000	63.83699700000000	0.30658200000000	0.00000000000000	0.12759100000000	0.00000000000000	0.00000000000000	0.00000000000000	0.00000000000000	0.00000000000000	0.00000000000000	0.00000000000000	24.38305300000000	0.00000000000000	0.00000000000000	0.00000000000000	0.00000000000000	
11.20161700000000	57.02319900000000	808.98583699999995	63.83768900000000	0.30553800000000	0.00000000000000	0.12763500000000	0.00000000000000	0.00000000000000	0.00000000000000	0.00000000000000	0.00000000000000	0.00000000000000	0.00000000000000	24.43799600000000	0.00000000000000	0.00000000000000	0.00000000000000	0.00000000000000	
11.20329000000000	56.25778600000000	809.39945100000000	63.82714300000000	0.30449900000000	0.00000000000000	0.12767900000000	0.00000000000000	0.00000000000000	0.00000000000000	0.00000000000000	0.00000000000000	0.00000000000000	0.00000000000000	24.48460800000000	0.00000000000000	0.00000000000000	0.00000000000000	0.00000000000000	
11.20495500000000	55.50330100000000	809.67630999999994	63.80520800000000	0.30346500000000	0.00000000000000	0.12772400000000	0.00000000000000	0.00000000000000	0.00000000000000	0.00000000000000	0.00000000000000	0.00000000000000	0.00000000000000	24.52270000000000	0.00000000000000	0.00000000000000	0.00000000000000	0.00000000000000	
11.20661700000000	54.75997100000000	809.81912599999998	63.77174300000000	0.30243400000000	0.00000000000000	0.12776900000000	0.00000000000000	0.00000000000000	0.00000000000000	0.00000000000000	0.00000000000000	0.00000000000000	0.00000000000000	24.55209500000000	0.00000000000000	0.00000000000000	0.00000000000000	0.00000000000000	
11.20828200000000	54.02796800000000	809.83080099999995	63.72661600000000	0.30140600000000	0.00000000000000	0.12781400000000	0.00000000000000	0.00000000000000	0.00000000000000	0.00000000000000	0.00000000000000	0.00000000000000	0.00000000000000	24.57263600000000	0.00000000000000	0.00000000000000	0.00000000000000	0.00000000000000	
11.20995600000000	53.30741500000000	809.71441500000003	63.66970800000000	0.30037900000000	0.00000000000000	0.12785900000000	0.00000000000000	0.00000000000000	0.00000000000000	0.00000000000000	0.00000000000000	0.00000000000000	0.00000000000000	24.58418600000000	0.00000000000000	0.00000000000000	0.00000000000000	0.00000000000000	
11.21161500000000	52.59838200000000	809.47322799999995	63.60092000000000	0.29935100000000	0.00000000000000	0.12790400000000	0.00000000000000	0.00000000000000	0.00000000000000	0.00000000000000	0.00000000000000	0.00000000000000	0.00000000000000	24.58662900000000	0.00000000000000	0.00000000000000	0.00000000000000	0.00000000000000	
11.21329000000000	51.90090000000000	809.11066200000005	63.52017000000000	0.29832200000000	0.00000000000000	0.12794900000000	0.00000000000000	0.00000000000000	0.00000000000000	0.00000000000000	0.00000000000000	0.00000000000000	0.00000000000000	24.57987300000000	0.00000000000000	0.00000000000000	0.00000000000000	0.00000000000000	
11.21495200000000	51.21495500000000	808.63029800000004	63.42740000000000	0.29729100000000	0.00000000000000	0.12799500000000	0.00000000000000	0.00000000000000	0.00000000000000	0.00000000000000	0.00000000000000	0.00000000000000	0.00000000000000	24.56384700000000	0.00000000000000	0.00000000000000	0.00000000000000	0.00000000000000	
11.21661700000000	50.54049800000000	808.03586700000005	63.32257400000000	0.29625700000000	0.00000000000000	0.12804000000000	0.00000000000000	0.00000000000000	0.00000000000000	0.00000000000000	0.00000000000000	0.00000000000000	0.00000000000000	24.53850900000000	0.00000000000000	0.00000000000000	0.00000000000000	0.00000000000000	
11.21828600000000	49.87745000000000	807.33123300000000	63.20568500000000	0.29521900000000	0.00000000000000	0.12808500000000	0.00000000000000	0.00000000000000	0.00000000000000	0.00000000000000	0.00000000000000	0.00000000000000	0.00000000000000	24.50384300000000	0.00000000000000	0.00000000000000	0.00000000000000	0.00000000000000	
11.21994900000000	49.22569800000000	806.52039200000002	63.07675300000000	0.29417500000000	0.00000000000000	0.12813000000000	0.00000000000000	0.00000000000000	0.00000000000000	0.00000000000000	0.00000000000000	0.00000000000000	0.00000000000000	24.45985600000000	0.00000000000000	0.00000000000000	0.00000000000000	0.00000000000000	
11.22162900000000	48.58510900000000	805.60745199999997	62.93582800000000	0.29312500000000	0.00000000000000	0.12817500000000	0.00000000000000	0.00000000000000	0.00000000000000	0.00000000000000	0.00000000000000	0.00000000000000	0.00000000000000	24.40658600000000	0.00000000000000	0.00000000000000	0.00000000000000	0.00000000000000	
11.22328500000000	47.95552600000000	804.59662700000001	62.78299100000000	0.29206900000000	0.00000000000000	0.12821900000000	0.00000000000000	0.00000000000000	0.00000000000000	0.00000000000000	0.00000000000000	0.00000000000000	0.00000000000000	24.34409800000000	0.00000000000000	0.00000000000000	0.00000000000000	0.00000000000000	
11.22495300000000	47.33677400000000	803.49222199999997	62.61835500000000	0.29100500000000	0.00000000000000	0.12826300000000	0.00000000000000	0.00000000000000	0.00000000000000	0.00000000000000	0.00000000000000	0.00000000000000	0.00000000000000	24.27248400000000	0.00000000000000	0.00000000000000	0.00000000000000	0.00000000000000	
11.22662200000000	46.72866500000000	802.29862300000002	62.44206400000000	0.28993400000000	0.00000000000000	0.12830700000000	0.00000000000000	0.00000000000000	0.00000000000000	0.00000000000000	0.00000000000000	0.00000000000000	0.00000000000000	24.19186300000000	0.00000000000000	0.00000000000000	0.00000000000000	0.00000000000000	
11.22828700000000	46.13099800000000	801.02028399999995	62.25429800000000	0.28885300000000	0.00000000000000	0.12835000000000	0.00000000000000	0.00000000000000	0.00000000000000	0.00000000000000	0.00000000000000	0.00000000000000	0.00000000000000	24.10238300000000	0.00000000000000	0.00000000000000	0.00000000000000	0.00000000000000	
11.22995400000000	45.54356600000000	799.66171199999997	62.05526700000000	0.28776400000000	0.00000000000000	0.12839200000000	0.00000000000000	0.00000000000000	0.00000000000000	0.00000000000000	0.00000000000000	0.00000000000000	0.00000000000000	24.00421800000000	0.00000000000000	0.00000000000000	0.00000000000000	0.00000000000000	
